<svg id="visual" viewBox="0 0 900 600" width="900" height="600" xmlns="http://www.w3.org/2000/svg" xmlns:xlink="http://www.w3.org/1999/xlink" version="1.1"><rect x="0" y="0" width="900" height="600" fill="#140021"></rect><path d="M363 0L316 0L316 32L377 32L377 63L484 63L484 95L321 95L321 126L563 126L563 158L380 158L380 189L430 189L430 221L538 221L538 253L441 253L441 284L508 284L508 316L331 316L331 347L488 347L488 379L464 379L464 411L373 411L373 442L347 442L347 474L484 474L484 505L487 505L487 537L407 537L407 568L412 568L412 600L0 600L0 568L0 568L0 537L0 537L0 505L0 505L0 474L0 474L0 442L0 442L0 411L0 411L0 379L0 379L0 347L0 347L0 316L0 316L0 284L0 284L0 253L0 253L0 221L0 221L0 189L0 189L0 158L0 158L0 126L0 126L0 95L0 95L0 63L0 63L0 32L0 32L0 0L0 0Z" fill="#9900ff"></path><path d="M383 0L344 0L344 32L350 32L350 63L205 63L205 95L248 95L248 126L283 126L283 158L247 158L247 189L262 189L262 221L328 221L328 253L292 253L292 284L269 284L269 316L411 316L411 347L417 347L417 379L342 379L342 411L414 411L414 442L177 442L177 474L315 474L315 505L241 505L241 537L373 537L373 568L236 568L236 600L0 600L0 568L0 568L0 537L0 537L0 505L0 505L0 474L0 474L0 442L0 442L0 411L0 411L0 379L0 379L0 347L0 347L0 316L0 316L0 284L0 284L0 253L0 253L0 221L0 221L0 189L0 189L0 158L0 158L0 126L0 126L0 95L0 95L0 63L0 63L0 32L0 32L0 0L0 0Z" fill="#7700c6"></path><path d="M233 0L238 0L238 32L185 32L185 63L244 63L244 95L196 95L196 126L142 126L142 158L179 158L179 189L252 189L252 221L184 221L184 253L136 253L136 284L241 284L241 316L113 316L113 347L107 347L107 379L190 379L190 411L150 411L150 442L115 442L115 474L215 474L215 505L211 505L211 537L152 537L152 568L84 568L84 600L0 600L0 568L0 568L0 537L0 537L0 505L0 505L0 474L0 474L0 442L0 442L0 411L0 411L0 379L0 379L0 347L0 347L0 316L0 316L0 284L0 284L0 253L0 253L0 221L0 221L0 189L0 189L0 158L0 158L0 126L0 126L0 95L0 95L0 63L0 63L0 32L0 32L0 0L0 0Z" fill="#560090"></path></svg>