<svg id="visual" viewBox="0 0 900 600" width="900" height="600" xmlns="http://www.w3.org/2000/svg" xmlns:xlink="http://www.w3.org/1999/xlink" version="1.1"><path d="M0 241L82 199L164 151L245 211L327 175L409 139L491 241L573 211L655 145L736 253L818 103L900 247L900 0L818 0L736 0L655 0L573 0L491 0L409 0L327 0L245 0L164 0L82 0L0 0Z" fill="#00cc8e"></path><path d="M0 295L82 295L164 265L245 325L327 229L409 181L491 295L573 253L655 259L736 367L818 205L900 301L900 245L818 101L736 251L655 143L573 209L491 239L409 137L327 173L245 209L164 149L82 197L0 239Z" fill="#00b98a"></path><path d="M0 397L82 433L164 397L245 379L327 355L409 343L491 367L573 331L655 313L736 457L818 295L900 439L900 299L818 203L736 365L655 257L573 251L491 293L409 179L327 227L245 323L164 263L82 293L0 293Z" fill="#00a784"></path><path d="M0 433L82 535L164 433L245 439L327 421L409 391L491 403L573 367L655 349L736 493L818 373L900 505L900 437L818 293L736 455L655 311L573 329L491 365L409 341L327 353L245 377L164 395L82 431L0 395Z" fill="#00957c"></path><path d="M0 601L82 601L164 601L245 601L327 601L409 601L491 601L573 601L655 601L736 601L818 601L900 601L900 503L818 371L736 491L655 347L573 365L491 401L409 389L327 419L245 437L164 431L82 533L0 431Z" fill="#038373"></path></svg>