<svg id="visual" viewBox="0 0 900 600" xmlns="http://www.w3.org/2000/svg" xmlns:xlink="http://www.w3.org/1999/xlink" version="1.1"><path d="M0 49L82 49L82 103L164 103L164 37L245 37L245 91L327 91L327 103L409 103L409 91L491 91L491 37L573 37L573 103L655 103L655 67L736 67L736 79L818 79L818 55L900 55L900 49L900 0L900 0L818 0L818 0L736 0L736 0L655 0L655 0L573 0L573 0L491 0L491 0L409 0L409 0L327 0L327 0L245 0L245 0L164 0L164 0L82 0L82 0L0 0Z" fill="#fa7268"></path><path d="M0 133L82 133L82 211L164 211L164 133L245 133L245 133L327 133L327 175L409 175L409 199L491 199L491 115L573 115L573 163L655 163L655 169L736 169L736 169L818 169L818 181L900 181L900 109L900 47L900 53L818 53L818 77L736 77L736 65L655 65L655 101L573 101L573 35L491 35L491 89L409 89L409 101L327 101L327 89L245 89L245 35L164 35L164 101L82 101L82 47L0 47Z" fill="#ea5e66"></path><path d="M0 415L82 415L82 373L164 373L164 319L245 319L245 379L327 379L327 331L409 331L409 391L491 391L491 325L573 325L573 313L655 313L655 349L736 349L736 409L818 409L818 283L900 283L900 223L900 107L900 179L818 179L818 167L736 167L736 167L655 167L655 161L573 161L573 113L491 113L491 197L409 197L409 173L327 173L327 131L245 131L245 131L164 131L164 209L82 209L82 131L0 131Z" fill="#d84a64"></path><path d="M0 481L82 481L82 475L164 475L164 469L245 469L245 499L327 499L327 481L409 481L409 451L491 451L491 433L573 433L573 409L655 409L655 469L736 469L736 475L818 475L818 415L900 415L900 385L900 221L900 281L818 281L818 407L736 407L736 347L655 347L655 311L573 311L573 323L491 323L491 389L409 389L409 329L327 329L327 377L245 377L245 317L164 317L164 371L82 371L82 413L0 413Z" fill="#c53762"></path><path d="M0 601L82 601L82 601L164 601L164 601L245 601L245 601L327 601L327 601L409 601L409 601L491 601L491 601L573 601L573 601L655 601L655 601L736 601L736 601L818 601L818 601L900 601L900 601L900 383L900 413L818 413L818 473L736 473L736 467L655 467L655 407L573 407L573 431L491 431L491 449L409 449L409 479L327 479L327 497L245 497L245 467L164 467L164 473L82 473L82 479L0 479Z" fill="#b0235f"></path></svg>